<mxfile host="app.diagrams.net" modified="2023-12-14T03:15:10.773Z" agent="Mozilla/5.0 (Windows NT 10.0; Win64; x64) AppleWebKit/537.36 (KHTML, like Gecko) Chrome/119.0.0.0 Safari/537.36 OPR/105.0.0.0" version="22.1.8" etag="EQfL9T0ZsafsyjRkyJo5" type="github">
  <diagram name="PÃ¡gina-1" id="tqJFCqDtcg4w2Zg__7Rf">
    <mxGraphModel>
      <root>
        <mxCell id="0" />
        <mxCell id="1" parent="0" />
      </root>
    </mxGraphModel>
  </diagram>
</mxfile>
